<?xml version="1.0" encoding="UTF-8" standalone="no"?>
<!-- Created with Inkscape (http://www.inkscape.org/) -->

<svg
   xmlns:dc="http://purl.org/dc/elements/1.1/"
   xmlns:cc="http://creativecommons.org/ns#"
   xmlns:rdf="http://www.w3.org/1999/02/22-rdf-syntax-ns#"
   xmlns:svg="http://www.w3.org/2000/svg"
   xmlns="http://www.w3.org/2000/svg"
   xmlns:sodipodi="http://sodipodi.sourceforge.net/DTD/sodipodi-0.dtd"
   xmlns:inkscape="http://www.inkscape.org/namespaces/inkscape"
   version="1.1"
   id="svg815"
   width="1372.8"
   height="1318.4"
   viewBox="0 0 1372.8 1318.4"
   sodipodi:docname="hanna_blob_squinty smile_blue.svg"
   inkscape:version="0.92.4 (5da689c313, 2019-01-14)"
   inkscape:export-filename="C:\Users\cantilk\Pictures\Hanna Blob stickers\hanna_blob_squinty smile_blue.png"
   inkscape:export-xdpi="57.706841"
   inkscape:export-ydpi="57.706841">
  <metadata
     id="metadata821">
    <rdf:RDF>
      <cc:Work
         rdf:about="">
        <dc:format>image/svg+xml</dc:format>
        <dc:type
           rdf:resource="http://purl.org/dc/dcmitype/StillImage" />
        <dc:title></dc:title>
      </cc:Work>
    </rdf:RDF>
  </metadata>
  <defs
     id="defs819" />
  <sodipodi:namedview
     pagecolor="#ffffff"
     bordercolor="#666666"
     borderopacity="1"
     objecttolerance="10"
     gridtolerance="10"
     guidetolerance="10"
     inkscape:pageopacity="0"
     inkscape:pageshadow="2"
     inkscape:window-width="1680"
     inkscape:window-height="987"
     id="namedview817"
     showgrid="false"
     inkscape:zoom="1.7548948"
     inkscape:cx="452.61938"
     inkscape:cy="724.62981"
     inkscape:window-x="-8"
     inkscape:window-y="-8"
     inkscape:window-maximized="1"
     inkscape:current-layer="layer3" />
  <g
     inkscape:groupmode="layer"
     id="layer2"
     inkscape:label="Color Fill"
     style="display:inline">
    <path
       style="opacity:1;fill:#25b021;fill-opacity:0.5427136;stroke:none;stroke-width:18.27480125;stroke-miterlimit:4;stroke-dasharray:none;stroke-opacity:1"
       d="m 680.04394,261.9418 c -8.86455,-0.50459 -16.94735,-1.45686 -17.96178,-2.11614 -1.01443,-0.65929 -2.22638,-3.92305 -2.69323,-7.25281 -0.46686,-3.32976 -1.74394,-9.945 -2.83797,-14.70053 -4.9547,-21.53705 8.41237,-50.07899 21.55886,-46.03339 6.58573,2.02664 20.14226,14.95946 22.19236,21.17133 2.809,8.51136 0.14806,51.0895 -3.13355,50.14035 -0.55403,-0.16025 -8.26014,-0.70421 -17.12469,-1.20881 z"
       id="path5692"
       inkscape:connector-curvature="0" />
    <path
       style="opacity:1;fill:#25b021;fill-opacity:0.5427136;stroke:none;stroke-width:18.27480125;stroke-miterlimit:4;stroke-dasharray:none;stroke-opacity:1"
       d="m 747.78043,171.17008 c 1.92275,-6.53685 11.13089,-20.7741 16.50627,-25.52134 9.73664,-8.59885 18.10247,-7.66274 18.10247,2.02562 0,10.58781 -9.33359,20.62611 -22.93326,24.66478 -11.39959,3.38531 -12.96888,3.22818 -11.67548,-1.16906 z"
       id="path5696"
       inkscape:connector-curvature="0" />
    <path
       id="path5698"
       style="opacity:1;fill:#25b021;fill-opacity:0.5427136;stroke:none;stroke-width:18.27480125;stroke-miterlimit:4;stroke-dasharray:none;stroke-opacity:1"
       d="m 766.27181,223.18699 c -15.09118,-3.21729 -35.07512,-8.7715 -38.68166,-10.75095 -2.21614,-1.21632 -8.92499,-4.83304 -14.90856,-8.03715 -5.98357,-3.20411 -10.87922,-6.4981 -10.87922,-7.31999 0,-1.72868 9.92812,-6.16506 13.79671,-6.16506 1.43995,0 4.46218,-1.45056 6.71607,-3.22347 8.60496,-6.76866 15.1344,-3.34056 24.64109,12.93714 6.91175,11.83456 10.98847,15.27633 16.15298,13.63718 4.3211,-1.37146 3.98404,-2.79649 -1.646,-6.95896 -15.08644,-11.15388 -9.27903,-26.0623 10.15227,-26.0623 8.03468,0 14.20203,3.88646 18.08598,11.39718 2.59085,5.01014 9.80775,9.55539 15.17197,9.55539 2.5765,0 3.30351,-1.03646 3.30351,-4.70962 0,-3.49613 -1.65228,-6.1239 -6.41261,-10.19857 l -6.41261,-5.48895 4.80088,-3.54944 c 2.64047,-1.95219 4.80087,-4.22505 4.80087,-5.0508 0,-0.82575 -3.08245,-2.32551 -6.84988,-3.3328 -3.76743,-1.0073 -7.75648,-2.57462 -8.86455,-3.48295 -2.91355,-2.38834 -2.46716,-7.74774 1.13775,-13.65996 9.30987,-15.26862 40.14734,-8.27653 49.85593,11.30433 l 3.8504,7.76572 -3.72223,7.94713 c -7.41464,15.83057 -26.30465,30.98354 -50.03119,40.13346 -13.1842,5.08437 -14.74361,5.29914 -24.0579,3.31344 z m -72.52811,-41.7765 c 0,-0.85964 3.08244,-4.0509 6.84987,-7.09168 6.64282,-5.36156 39.29322,-26.92184 40.76984,-26.92184 1.656,0 0.56126,6.9379 -1.82194,11.54651 -3.07323,5.94296 -14.52575,18.61571 -18.97528,20.99702 -4.246,2.27239 -26.82249,3.50968 -26.82249,1.46999 z m -77.36333,23.77835 c 0,-1.04707 1.80268,-4.97982 4.00597,-8.73944 6.94221,-11.84598 24.4572,-17.95427 39.48451,-13.77008 3.87487,1.07892 3.75495,1.28521 -3.74784,6.44727 -14.34051,9.86653 -39.74264,20.13297 -39.74264,16.06225 z m 28.12547,-32.65942 c -5.46678,-2.38118 -13.61985,-11.22863 -13.61985,-14.77982 0,-3.04628 5.38581,-2.90838 11.76513,0.30125 5.47996,2.75712 17.24612,13.30539 17.24612,15.461 0,2.01799 -9.96295,1.38206 -15.3914,-0.98243 z m -66.50962,36.07565 c -4.71186,-0.6861 -8.95452,-1.63494 -9.42811,-2.10854 -1.82894,-1.82893 2.98844,-12.02228 7.95816,-16.83913 8.42902,-8.16973 24.45224,-12.16631 36.17639,-9.02327 3.45541,0.92634 3.49338,1.15491 1.13422,6.82787 -3.73988,8.99311 -10.45959,17.93115 -15.40249,20.48723 -4.81262,2.4887 -7.3022,2.56859 -20.43817,0.65584 z m 29.92254,-35.54942 c -1.5513,-0.90355 -2.82054,-2.61625 -2.82054,-3.80601 0,-1.18977 -3.27456,-5.8053 -7.27679,-10.25674 -4.00223,-4.45144 -8.34551,-10.65137 -9.65174,-13.77762 -2.11654,-5.06558 -2.1014,-5.95764 0.13909,-8.19814 6.45488,-6.45488 20.84392,0.34941 30.34451,14.3493 6.036,8.89454 5.65544,16.12724 -1.06412,20.22424 -6.01014,3.66445 -5.91808,3.65051 -9.67041,1.46497 z m -60.84304,31.15251 c -18.14002,-9.06196 -9.22772,-54.95436 12.83247,-66.07867 10.70091,-5.39615 14.99351,-4.85997 18.40751,2.29928 1.55417,3.25913 3.2189,9.24508 3.6994,13.30211 1.18024,9.96533 -2.3779,14.28066 -13.91788,16.87969 l -8.67905,1.95469 5.11093,2.11702 c 3.55687,1.4733 5.11093,3.19867 5.11093,5.67432 0,3.36554 -13.965,26.67743 -15.97793,26.6721 -0.51992,-10e-4 -3.48379,-1.27062 -6.58638,-2.82054 z"
       inkscape:connector-curvature="0" />
    <path
       style="opacity:1;fill:#58a8ef;fill-opacity:0.54271358;stroke:none;stroke-width:18.27480125;stroke-miterlimit:4;stroke-dasharray:none;stroke-opacity:1"
       d="m 641.36228,966.94356 c -0.88646,-0.31488 -12.8536,-1.37253 -26.59365,-2.35031 -32.84655,-2.33745 -63.54822,-6.83407 -99.12176,-14.51749 -15.95618,-3.44634 -35.17614,-6.76052 -42.711,-7.36486 -7.53487,-0.60433 -27.4801,-3.95076 -44.32274,-7.43653 -52.59412,-10.88487 -63.23335,-12.5508 -95.83209,-15.00563 -35.71265,-2.68933 -60.19,-5.94953 -81.39991,-10.84189 -13.81951,-3.18766 -14.85355,-3.7392 -23.81886,-12.70451 -21.12467,-21.12467 -26.47458,-49.11116 -15.14303,-79.21632 8.30392,-22.06148 19.63741,-40.68728 46.64243,-76.65357 9.12445,-12.1523 19.01857,-26.44677 21.98693,-31.76549 8.3612,-14.98169 22.59575,-35.71372 49.2443,-71.72225 31.19935,-42.15776 38.83212,-53.60675 51.86827,-77.80127 18.59636,-34.51401 31.38427,-53.19802 69.74849,-101.90729 11.17097,-14.18328 28.26474,-36.667 37.98612,-49.96382 31.71709,-43.38236 60.54104,-75.29338 92.69011,-102.61727 14.16937,-12.04273 35.5491,-24.60319 50.01773,-29.38513 19.41665,-6.41727 31.68323,-7.04396 50.95534,-2.60329 37.38078,8.61327 67.08857,22.49444 94.10768,43.97246 31.20779,24.80768 37.49665,32.25046 54.32219,64.28946 25.00657,47.61724 36.23505,78.33607 64.72185,177.06565 9.84333,34.115 20.82715,69.15333 24.40849,77.86298 3.58136,8.70964 11.10824,28.65487 16.72645,44.32274 11.95144,33.32981 19.30176,52.05762 23.51594,59.91588 1.66382,3.10259 11.37964,22.68518 21.59071,43.51687 10.21106,20.83169 21.19693,42.67093 24.41313,48.53167 3.3147,6.04018 6.2136,13.90247 6.6924,18.15095 1.6014,14.20759 -6.9591,27.69383 -21.92777,34.54484 -3.22094,1.47421 -9.44173,5.82957 -13.82399,9.67859 -12.02298,10.56004 -36.40847,21.44904 -75.03667,33.5066 -74.75254,23.33356 -103.14791,30.17347 -132.96822,32.02958 -9.751,0.60695 -31.14679,2.48846 -47.54621,4.18115 -25.66713,2.64927 -76.36327,4.07407 -81.39266,2.2875 z"
       id="path5700"
       inkscape:connector-curvature="0"
       sodipodi:nodetypes="cssccssssscsssssssssscscsccccscsc" />
    <path
       style="opacity:0;fill:#cf6ae5;fill-opacity:0.40909095;stroke:none;stroke-width:12.92223644;stroke-miterlimit:4;stroke-dasharray:none;stroke-opacity:1"
       d="m 647.01352,967.62738 c -0.31743,-0.25166 -12.93897,-1.46193 -33.80779,-3.24183 -33.34224,-2.84374 -56.48051,-6.08842 -85.4752,-11.9862 -9.08887,-1.84875 -18.32019,-3.65198 -20.51405,-4.00717 -2.19387,-0.35519 -7.06595,-1.36042 -10.82686,-2.23385 -3.76091,-0.87343 -11.96653,-2.16795 -18.23471,-2.8767 -14.49433,-1.63889 -32.99697,-4.72764 -54.70702,-9.13257 -9.40069,-1.90738 -18.63071,-3.72379 -20.51117,-4.03647 -1.88045,-0.31268 -8.54752,-1.57008 -14.8157,-2.79423 -18.022,-3.51963 -24.18862,-4.30001 -58.69297,-7.42753 -44.71059,-4.05263 -63.69955,-6.8059 -83.76571,-12.14547 -8.73238,-2.32366 -9.47878,-2.79177 -17.67703,-11.08613 -16.39102,-16.58321 -23.59507,-37.08488 -20.59941,-58.6229 3.35016,-24.0868 17.43159,-50.61072 51.52578,-97.0545 9.17114,-12.49313 13.62768,-19.09351 34.45142,-51.02454 6.0382,-9.25896 17.77576,-26.18305 26.08347,-37.60909 8.3077,-11.42605 16.18208,-22.31319 17.49861,-24.19365 1.31654,-1.88045 8.0588,-11.31183 14.9828,-20.95862 12.8469,-17.89877 19.87589,-29.16227 34.57188,-55.39923 15.69577,-28.02186 28.87291,-46.93806 68.27548,-98.01157 6.28657,-8.14863 21.54496,-28.14983 33.90755,-44.44711 28.13203,-37.08573 40.83899,-52.27761 61.79422,-73.87845 34.83433,-35.9075 63.51351,-55.39746 91.73837,-62.34404 43.59633,-10.72973 117.96125,20.84734 164.25736,69.74747 10.27515,10.85312 18.53429,24.2344 32.58835,52.79899 18.61916,37.84302 28.68457,65.37871 49.99148,136.76033 6.36142,21.31182 11.98974,40.28732 12.50737,42.16777 5.36823,19.50167 16.01479,52.53245 21.67313,67.2405 3.85829,10.02909 7.92283,20.79897 9.03231,23.93306 1.10949,3.13409 3.33312,9.03188 4.94141,13.10619 1.6083,4.07432 5.83594,15.35705 9.39477,25.07273 3.55882,9.71568 7.23236,19.45986 8.16344,21.65372 3.36487,7.9286 36.20309,75.07413 45.4254,92.88306 9.7207,18.77136 14.1789,29.98261 14.1789,35.65678 0,10.99415 -8.2529,23.21231 -20.29178,30.04126 -3.56977,2.02492 -10.59329,6.79488 -15.60783,10.59991 -21.61219,16.39929 -48.03668,26.51597 -131.36091,50.29182 -36.31103,10.36105 -57.62241,14.15294 -95.43331,16.98029 -5.01455,0.37496 -11.42519,0.91461 -14.24587,1.1992 -23.16445,2.33718 -36.31465,3.14937 -61.35461,3.78941 -15.88073,0.40591 -28.95843,0.67113 -29.06157,0.58936 z m -3.21194,-282.61162 8.3723,-2.78445 8.22561,2.30812 c 4.52408,1.26945 9.09038,2.3081 10.14733,2.3081 3.37005,0 2.07697,-2.09227 -3.20679,-5.18877 -5.61033,-3.28786 -6.27335,-4.5513 -2.94315,-5.60826 2.85518,-0.9062 8.07166,-5.02988 8.07166,-6.38073 0,-1.65917 -4.47218,-1.25153 -13.39435,1.22094 l -8.22003,2.27788 -8.8521,-2.97474 c -7.97437,-2.67977 -10.43418,-2.96218 -24.80748,-2.84809 -8.77546,0.0696 -19.14679,0.80631 -23.0474,1.63702 -6.23588,1.32804 -8.02445,1.27426 -14.8157,-0.44553 -4.24803,-1.07575 -8.10832,-1.72498 -8.57843,-1.44274 -1.23855,0.74357 -1.04879,7.00394 0.28799,9.50175 0.7639,1.42735 0.7639,2.36941 0,2.84152 -0.6285,0.38844 -1.14274,2.47097 -1.14274,4.62784 0,4.55861 1.41694,4.8719 10.82686,2.39397 3.90532,-1.02842 6.94051,-1.17333 9.64607,-0.46055 14.72802,3.88005 40.21768,3.41097 53.43035,-0.98328 z m -190.21787,-17.4467 c 1.30145,-1.82771 2.68705,-4.927 3.07911,-6.88734 1.40806,-7.04026 -7.39255,-12.04327 -16.11887,-9.16333 -5.63676,1.8603 -7.09662,5.31302 -4.53176,10.71806 4.22485,8.90323 13.10916,11.59944 17.57152,5.33261 z m 346.56698,-4.67555 c 1.19276,-0.63835 3.49818,-3.4293 5.12316,-6.2021 2.85104,-4.86494 2.88627,-5.1456 1.00618,-8.01498 -2.65296,-4.04892 -7.48629,-6.3399 -13.63586,-6.46333 -6.12516,-0.12295 -9.62769,2.47013 -9.62769,7.12778 0,10.12103 9.50234,17.63708 17.13421,13.55263 z m -66.70983,-27.21242 c 8.60784,-3.98531 14.7984,-13.62885 16.16702,-25.18472 2.26367,-19.11315 -18.43773,-32.13763 -34.85067,-21.92663 -12.66998,7.88238 -16.88529,30.43481 -7.83836,41.93612 5.36785,6.82413 17.74437,9.23914 26.52201,5.17523 z m -210.67487,-5.03016 c 5.00944,-2.6005 10.67543,-8.52937 12.69958,-13.28879 0.94108,-2.21281 1.72257,-6.98881 1.73664,-10.61335 0.0212,-5.47947 -0.54056,-7.39554 -3.33372,-11.36973 -1.84761,-2.62881 -5.86746,-6.33036 -8.93301,-8.22564 -5.01026,-3.09761 -6.51343,-3.44597 -14.86917,-3.44597 -8.43427,0 -9.6847,0.2969 -13.4971,3.20476 -6.3147,4.81645 -10.24212,13.36496 -10.34909,22.52601 -0.0751,6.42884 0.39924,8.28219 3.33148,13.01771 5.02892,8.12164 11.28918,11.16866 21.65372,10.53937 4.38773,-0.2664 9.59003,-1.32137 11.56067,-2.34437 z"
       id="path6922"
       inkscape:connector-curvature="0" />
  </g>
  <g
     inkscape:groupmode="layer"
     id="layer1"
     inkscape:label="Vector"
     style="display:inline">
    <path
       style="fill:#000000;fill-opacity:1;stroke:#ffffff;stroke-width:0.80000001;stroke-opacity:1"
       d="M 579.04297 127.16211 C 574.44995 127.13621 569.83843 127.39555 565.23633 127.94141 C 530.29505 135.64825 507.07628 215.16568 557.19922 215.89648 C 585.40163 226.94315 632.15645 206.45643 648.84961 211.80078 C 650.08633 243.79315 649.73176 273.78432 611.66211 276.6582 C 581.4449 293.82586 556.72385 319.93798 532.08984 344.50781 C 487.95922 395.50575 451.85969 452.94157 408.13867 504.38672 C 381.00598 544.6133 362.76612 590.51642 331.07227 627.99023 C 300.0671 661.81182 281.66882 704.52154 252.89258 739.99609 C 233.50237 767.69513 202.61506 800.91085 206.33789 834.16797 C 192.71157 858.93204 209.73005 896.99351 235.19922 912.18555 C 280.84003 924.01689 328.07726 926.52024 374.80078 931.5918 C 412.46359 940.91087 450.0307 952.42817 489.39453 953.20898 C 540.62527 969.59074 594.22763 974.56071 647.59961 978.26953 C 679.50798 980.02119 712.69549 976.49588 743.33203 974.26172 C 793.44291 971.69738 843.13705 961.16271 890.00586 943.52344 C 930.26899 935.10662 968.09663 918.39613 1001.9648 895.19922 C 1034.5898 882.56341 1031.6159 851.24611 1017.1055 824.15039 C 1004.5282 806.65505 999.31886 787.88197 988.31641 768.40039 C 974.16891 740.48289 959.30348 712.66406 951.40625 682.34375 C 923.79589 623.26557 906.10598 559.26879 889.34961 496 C 873.17009 455.23384 861.93755 412.50499 838.29102 375.19922 C 828.50953 344.93574 804.32377 324.94296 779.26172 307.33789 C 761.97542 280.70308 706.60081 288.34991 711.76562 250.88867 C 699.31193 205.2617 737.3116 226.06342 762.79883 233.17969 C 791.4128 240.77144 817.43461 216.29078 837.72461 201.28711 C 863.10914 180.6515 846.95834 138.46185 816.79297 134.26562 C 781.98291 128.52595 742.93106 131.40983 714.0332 152.80078 C 690.58992 178.05162 672.22249 173.32885 647.14062 152.4375 C 628.08766 135.76673 603.84525 127.30196 579.04297 127.16211 z M 594.59961 133.47656 C 610.9901 133.65096 636.8512 164.65608 616.35938 173.51562 C 612.52443 175.71528 608.06256 175.1142 605.17188 172 C 602.44797 158.54181 590.56588 161.50317 585.45117 138.93359 C 587.53878 135.03906 590.81719 133.43632 594.59961 133.47656 z M 570.55859 134.05078 C 572.46 134.01844 574.41795 134.21164 576.42383 134.65625 C 588.26825 157.76887 586.2344 172.70285 560.03906 171.80859 C 579.23916 178.07582 570.12122 184.44963 557.13477 203.89258 C 555.15992 211.13787 548.58165 204.18905 544.12305 204.70898 C 525.99244 185.89668 542.03751 134.5359 570.55859 134.05078 z M 776.3125 138.84766 C 778.09894 138.88906 779.86973 139.37649 781.59375 140.4043 C 789.4938 159.8769 766.54909 176.08482 746.40039 175.06641 C 746.18406 167.71855 761.76574 138.51051 776.3125 138.84766 z M 808.23828 143.47266 C 823.57908 143.54906 841.77391 154.46589 844.16992 172.33203 C 837.16319 199.81307 802.9583 218.28988 778.5625 224.79688 C 762.22826 225.99224 745.94596 216.74131 729.19922 214.90234 C 713.81048 202.18298 679.70796 196.64208 718.51367 189.47656 C 746.4544 164.5515 747.00079 226.94712 766.35156 211.51172 C 725.58297 187.58859 781.88615 163.15303 791.12695 195.03711 C 813.18238 213.16184 813.3729 190.23111 793.39062 182.48633 C 816.35717 166.84078 795.28813 175.18393 786.40039 164.80078 C 786.10149 149.91211 796.30655 143.41323 808.23828 143.47266 z M 740.86719 146.26367 C 751.60362 145.98617 727.33795 188.60011 708 182.33789 C 662.60099 190.61363 733.14796 153.66845 739.71875 146.42578 C 740.13927 146.32448 740.52085 146.27262 740.86719 146.26367 z M 633.46094 154.3125 C 641.15349 154.81502 658.01664 164.89872 661.09375 174.15625 C 654.08741 179.14953 644.43152 173.18898 637.9043 170.07031 C 627.22676 158.11045 628.19761 153.96867 633.46094 154.3125 z M 603.19727 178.88672 C 608.17834 178.89061 613.15917 179.66996 617.74414 181.24805 C 614.89194 183.72037 605.75615 220.47624 581.59961 208.58984 C 576.7852 210.0115 572.34176 208.38865 567.70312 207.44727 C 567.60103 188.7493 585.40773 178.87281 603.19727 178.88672 z M 648.67969 180.43359 C 652.09948 180.42888 655.67113 180.87593 659.33789 181.85156 C 681.65176 178.16396 629.11539 208.03684 615.42773 207.69531 C 616.16948 193.64144 630.21281 180.45905 648.67969 180.43359 z M 674.91602 190.5332 C 678.90048 190.42136 683.30529 192.46629 687.97461 197.45312 C 713.64352 211.74969 698.52858 241.48715 700 265.59961 C 687.0516 256.53488 651.57902 271.78041 659.41211 249.54688 C 648.27251 231.99844 657.65001 191.01786 674.91602 190.5332 z M 666.18555 268.75391 C 700.47066 274.46747 733.69069 286.05018 763.18359 304.39648 C 787.05235 324.87891 816.19338 342.00294 827.86328 372.52734 C 847.10837 403.83978 858.96957 438.00898 871.94141 472 C 887.76851 521.81886 901.03393 572.4886 916.08789 622.5625 C 932.56597 658.39294 942.62079 696.78234 958.61719 733.02344 C 974.90613 763.28903 986.78305 795.88081 1004.4453 825.32812 C 1023.9493 853.09062 1016.2468 877.75673 986.40039 888.67969 C 962.79436 913.57748 925.89897 922.12382 893.91406 931.80078 C 858.36421 944.03603 822.20492 954.07242 784.82031 960.64453 C 734.47267 961.01388 684.3642 974.84183 633.86523 966.54883 C 584.39214 964.93579 535.85744 956.54445 487.97266 944.32812 C 442.37333 943.70444 399.25686 926.57582 354.41211 922.40039 C 315.24838 920.55635 275.49811 916.86457 238.11133 907.16211 C 214.88127 890.80399 200.32282 863.03275 207.04297 832.94531 C 206.89009 833.199 206.74576 833.45621 206.59961 833.71289 C 217.36189 789.70294 247.58754 755.20316 274.07031 719.86523 C 302.99995 664.51105 347.65086 620.00169 378.45508 565.95508 C 400.94497 516.79174 436.80518 476.21329 469.59961 434.08398 C 500.1478 391.93945 530.55691 348.45467 570.48047 314.92969 C 596.42719 290.00527 629.0899 269.05752 666.18555 268.75391 z "
       id="path6910" />
  </g>
  <g
     inkscape:groupmode="layer"
     id="layer3"
     inkscape:label="Face"
     style="display:inline">
    <path
       style="display:inline;fill:#000000;stroke:#ffffff;stroke-width:0.80000001;stroke-opacity:1"
       d="m 623.93352,720.46738 c -16.70469,0.4171 -60.51804,-33.39685 -53.33838,-53.16295 26.02144,5.2361 57.68076,16.49467 85.40486,5.28538 41.83062,-13.63424 -11.25752,48.48943 -32.06648,47.87757 z"
       id="path6890"
       inkscape:connector-curvature="0"
       sodipodi:nodetypes="cccc" />
    <path
       style="display:inline;fill:#000000;stroke:#ffffff;stroke-width:0.80000001;stroke-opacity:1"
       d="m 444.42425,670.60411 c -33.42728,-26.13287 33.78552,-26.2492 5.31032,0.44791 z"
       id="path6888"
       inkscape:connector-curvature="0" />
    <path
       style="display:inline;fill:#000000;stroke:#ffffff;stroke-width:0.80000001;stroke-opacity:1"
       d="m 789.93386,662.51568 c -28.30416,-32.32539 39.12865,-21.57508 8.87484,0.68432 -2.97391,0.0619 -6.5168,3.24861 -8.87484,-0.68432 z"
       id="path6886"
       inkscape:connector-curvature="0" />
    <path
       style="display:inline;opacity:0;fill:#b60000;fill-opacity:1;stroke:#3f5de4;stroke-width:12.92223644;stroke-miterlimit:4;stroke-dasharray:none;stroke-opacity:0.59595959"
       d="m 592.69168,686.38732 -6.26818,-1.34409 6.83802,-1.45338 c 14.72471,-3.12965 26.60787,-4.71152 35.42459,-4.71567 10.03539,-0.005 22.79428,2.085 21.33276,3.494 -0.50245,0.48439 -4.10269,1.94683 -8.00053,3.24987 -6.06966,2.02906 -9.6688,2.35079 -25.07273,2.24126 -9.89216,-0.0703 -20.80643,-0.73274 -24.25393,-1.47199 z"
       id="path6951"
       inkscape:connector-curvature="0" />
    <path
       id="path4532-9"
       style="display:inline;fill:#000000;stroke:#ffffff;stroke-width:0.5081799;stroke-opacity:0"
       d="m 707.42312,582.52706 c 64.11378,-18.53834 41.57997,-17.64596 -17.27268,0.56639 -65.17523,20.03963 -42.94879,16.60694 17.27268,-0.56639 z m -0.89022,33.68235 c 63.65773,20.04845 44.39674,8.31885 -14.69889,-9.08897 -65.37273,-19.38563 -44.96162,-9.94186 14.69889,9.08897 z"
       inkscape:connector-curvature="0" />
    <path
       id="path4532"
       style="display:inline;fill:#000000;stroke:#ffffff;stroke-width:0.5081799;stroke-opacity:0"
       d="m 536.3676,582.67757 c -64.11378,-18.53835 -41.57997,-17.64597 17.27268,0.56639 65.17523,20.03963 42.94879,16.60694 -17.27268,-0.56639 z m 0.89022,33.68235 c -63.65773,20.04845 -44.39674,8.31885 14.69889,-9.08897 65.37273,-19.38563 44.96162,-9.94186 -14.69889,9.08897 z"
       inkscape:connector-curvature="0" />
  </g>
</svg>
