<?xml version="1.0" encoding="UTF-8" standalone="no"?>
<!-- Created with Inkscape (http://www.inkscape.org/) -->

<svg
   xmlns:dc="http://purl.org/dc/elements/1.1/"
   xmlns:cc="http://creativecommons.org/ns#"
   xmlns:rdf="http://www.w3.org/1999/02/22-rdf-syntax-ns#"
   xmlns:svg="http://www.w3.org/2000/svg"
   xmlns="http://www.w3.org/2000/svg"
   xmlns:sodipodi="http://sodipodi.sourceforge.net/DTD/sodipodi-0.dtd"
   xmlns:inkscape="http://www.inkscape.org/namespaces/inkscape"
   version="1.1"
   id="svg815"
   width="1372.8"
   height="1318.4"
   viewBox="0 0 1372.8 1318.4"
   sodipodi:docname="hanna_blob_squish_blue.svg"
   inkscape:version="0.92.4 (5da689c313, 2019-01-14)"
   inkscape:export-filename="C:\Users\cantilk\Pictures\Hanna Blob stickers\hanna_blob_squish_blue.png"
   inkscape:export-xdpi="47.024712"
   inkscape:export-ydpi="47.024712">
  <metadata
     id="metadata821">
    <rdf:RDF>
      <cc:Work
         rdf:about="">
        <dc:format>image/svg+xml</dc:format>
        <dc:type
           rdf:resource="http://purl.org/dc/dcmitype/StillImage" />
        <dc:title></dc:title>
      </cc:Work>
    </rdf:RDF>
  </metadata>
  <defs
     id="defs819" />
  <sodipodi:namedview
     pagecolor="#ffffff"
     bordercolor="#666666"
     borderopacity="1"
     objecttolerance="10"
     gridtolerance="10"
     guidetolerance="10"
     inkscape:pageopacity="0"
     inkscape:pageshadow="2"
     inkscape:window-width="1680"
     inkscape:window-height="987"
     id="namedview817"
     showgrid="false"
     inkscape:zoom="0.62044902"
     inkscape:cx="264.50641"
     inkscape:cy="765.49128"
     inkscape:window-x="-8"
     inkscape:window-y="-8"
     inkscape:window-maximized="1"
     inkscape:current-layer="layer2" />
  <g
     inkscape:groupmode="layer"
     id="layer2"
     inkscape:label="Color Fill"
     style="display:inline">
    <path
       style="opacity:1;fill:#25b021;fill-opacity:0.5427136;stroke:none;stroke-width:15.62219048;stroke-miterlimit:4;stroke-dasharray:none;stroke-opacity:1"
       d="m 807.62989,565.18991 c -11.22802,-0.29112 -21.46586,-0.84052 -22.75076,-1.22089 -1.2849,-0.38037 -2.81998,-2.26337 -3.4113,-4.18444 -0.59134,-1.92108 -2.20891,-5.73769 -3.59463,-8.48135 -6.27573,-12.42562 10.65528,-28.89266 27.3069,-26.55858 8.34162,1.16925 25.5126,8.63073 28.1093,12.21462 3.55794,4.91056 0.18754,29.47566 -3.96902,28.92806 -0.70174,-0.0925 -10.46246,-0.40629 -21.69049,-0.69742 z"
       id="path5692"
       inkscape:connector-curvature="0" />
    <path
       style="opacity:1;fill:#25b021;fill-opacity:0.5427136;stroke:none;stroke-width:15.62219048;stroke-miterlimit:4;stroke-dasharray:none;stroke-opacity:1"
       d="m 893.42635,512.81993 c 2.43539,-3.77139 14.09861,-11.98545 20.90718,-14.72433 12.33263,-4.96103 22.92897,-4.42095 22.92897,1.16867 0,6.10854 -11.82212,11.90006 -29.04775,14.23013 -14.43896,1.95313 -16.42665,1.86248 -14.7884,-0.67447 z"
       id="path5696"
       inkscape:connector-curvature="0" />
    <path
       id="path5698"
       style="opacity:1;fill:#25b021;fill-opacity:0.5427136;stroke:none;stroke-width:15.62219048;stroke-miterlimit:4;stroke-dasharray:none;stroke-opacity:1"
       d="m 916.84791,542.83065 c -19.1148,-1.85619 -44.42688,-5.06065 -48.99499,-6.20267 -2.80701,-0.70175 -11.30458,-2.78838 -18.8835,-4.63697 -7.57891,-1.84858 -13.77984,-3.74902 -13.77984,-4.22321 0,-0.99734 12.57516,-3.55688 17.4752,-3.55688 1.82387,0 5.65189,-0.83689 8.50671,-1.85975 10.89922,-3.90512 19.16955,-1.92731 31.21092,7.46397 8.75457,6.82786 13.91822,8.81356 20.4597,7.86786 5.4732,-0.79125 5.04627,-1.61341 -2.08486,-4.01491 -19.1088,-6.43514 -11.75301,-15.03643 12.85908,-15.03643 10.17689,0 17.98859,2.24226 22.90808,6.57551 3.28162,2.89056 12.4227,5.5129 19.21713,5.5129 3.26345,0 4.1843,-0.59798 4.1843,-2.71717 0,-2.01707 -2.09281,-3.53314 -8.12235,-5.88398 l -8.12234,-3.16681 6.08089,-2.04782 c 3.34448,-1.1263 6.08088,-2.43761 6.08088,-2.91402 0,-0.47641 -3.90429,-1.34168 -8.6762,-1.92283 -4.7719,-0.58115 -9.82452,-1.4854 -11.22802,-2.00946 -3.69036,-1.37793 -3.12496,-4.46999 1.4411,-7.881 11.79207,-8.8091 50.85146,-4.77507 63.1486,6.52194 l 4.877,4.48037 -4.7147,4.58503 c -9.3915,9.13332 -33.31802,17.8757 -63.37055,23.15467 -16.69938,2.93338 -18.67456,3.05729 -30.47224,1.91166 z M 824.9823,518.72804 c 0,-0.49596 3.90428,-2.33713 8.67618,-4.09148 8.41394,-3.09331 49.76962,-15.53233 51.63993,-15.53233 2.09753,0 0.71091,4.00276 -2.3077,6.66166 -3.89262,3.42874 -18.39862,10.74018 -24.03449,12.11406 -5.37807,1.31103 -33.97392,2.02488 -33.97392,0.84809 z m -97.99001,13.71873 c 0,-0.6041 2.28331,-2.87307 5.07404,-5.04215 8.79315,-6.83444 30.978,-10.35857 50.01191,-7.94453 4.90799,0.62247 4.7561,0.74149 -4.74709,3.71969 -18.16399,5.69242 -50.33886,11.61555 -50.33886,9.26699 z m 35.62431,-18.84258 c -6.92434,-1.37381 -17.25119,-6.47827 -17.25119,-8.5271 0,-1.75752 6.82178,-1.67796 14.90196,0.1738 6.94103,1.5907 21.84429,7.67644 21.84429,8.9201 0,1.16426 -12.61928,0.79737 -19.49506,-0.5668 z m -84.24248,20.81354 c -5.96814,-0.39584 -11.34198,-0.94326 -11.94184,-1.2165 -2.31657,-1.05519 3.78522,-6.93616 10.07997,-9.7152 10.67638,-4.71346 30.97172,-7.01925 45.82177,-5.2059 4.3767,0.53444 4.42479,0.66632 1.43663,3.93928 -4.73701,5.1885 -13.24833,10.34523 -19.50911,11.81994 -6.09577,1.43583 -9.24912,1.48193 -25.88742,0.37838 z m 37.90052,-20.50994 c -1.96491,-0.5213 -3.57256,-1.50942 -3.57256,-2.19585 0,-0.68642 -4.14762,-3.34932 -9.21693,-5.91754 -5.06931,-2.56822 -10.5706,-6.14522 -12.2251,-7.94888 -2.68085,-2.92254 -2.66167,-3.43721 0.17618,-4.72985 8.17588,-3.72409 26.40134,0.20159 38.43499,8.27871 7.64532,5.13163 7.16329,9.30448 -1.34784,11.66821 -7.61257,2.11417 -7.49596,2.10613 -12.24874,0.8452 z m -77.06507,17.97318 c -22.97653,-5.22822 -11.68802,-31.70546 16.25388,-38.12354 13.55399,-3.11326 18.99109,-2.80392 23.31533,1.32655 1.96855,1.88033 4.07713,5.33387 4.68574,7.67454 1.49492,5.74942 -3.0119,8.23911 -17.62868,9.7386 l -10.99306,1.12774 6.47361,1.2214 c 4.5052,0.85001 6.47361,1.84545 6.47361,3.27375 0,1.94172 -17.68836,15.39132 -20.23798,15.38825 -0.65854,-5.8e-4 -4.41264,-0.73308 -8.34245,-1.62729 z"
       inkscape:connector-curvature="0" />
    <path
       style="opacity:1;fill:#58a8ef;fill-opacity:0.54271358;stroke:none;stroke-width:15.62219048;stroke-miterlimit:4;stroke-dasharray:none;stroke-opacity:1"
       d="m 758.6349,971.93481 c -1.12281,-0.18167 -16.28064,-0.79187 -33.68408,-1.35599 -41.60412,-1.34857 -80.4915,-3.94286 -125.54968,-8.37575 -20.21044,-1.98833 -44.55484,-3.90042 -54.09865,-4.24909 -9.54382,-0.34866 -34.80687,-2.27936 -56.14011,-4.29044 -66.61681,-6.27994 -80.09268,-7.24108 -121.38292,-8.65738 -45.23439,-1.55158 -76.23791,-3.43253 -103.10282,-6.25514 -17.50408,-1.83909 -18.81382,-2.1573 -30.16947,-7.32976 -26.75695,-12.1877 -33.53326,-28.33427 -19.18048,-45.70319 10.51792,-12.72819 24.87316,-23.47419 59.07828,-44.22464 11.55722,-7.01117 24.08932,-15.25825 27.8491,-18.32684 10.59047,-8.64356 28.62025,-20.60473 62.37386,-41.37955 39.51775,-24.32257 49.18557,-30.92797 65.69743,-44.8868 23.55454,-19.91257 39.75197,-30.69215 88.3449,-58.79456 14.14938,-8.18293 35.8007,-21.15472 48.11401,-28.82621 40.17353,-25.02909 76.68254,-43.43989 117.40322,-59.20418 17.94722,-6.94795 45.02724,-14.19461 63.35351,-16.95351 24.59353,-3.70239 40.13064,-4.06395 64.54109,-1.50194 47.34728,4.96935 84.97578,12.97798 119.19875,25.36954 39.52844,14.31259 47.49404,18.60664 68.80566,37.09127 31.6738,27.47237 45.896,45.19534 81.978,102.15655 12.4678,19.68237 26.3801,39.89744 30.9163,44.9224 4.5362,5.02496 14.0699,16.53219 21.1861,25.57164 15.1379,19.22935 24.448,30.03421 29.7858,34.56797 2.1074,1.79001 14.4137,13.08802 27.3472,25.10669 12.9335,12.01867 26.8485,24.61864 30.9222,27.99994 4.1985,3.48484 7.8703,8.02092 8.4767,10.47204 2.0284,8.19695 -8.8145,15.97773 -27.7742,19.93036 -4.0797,0.85054 -11.959,3.36332 -17.5097,5.58398 -15.2286,6.09253 -46.1157,12.37485 -95.043,19.33136 -94.68315,13.4621 -130.64931,17.40833 -168.42034,18.4792 -12.35082,0.35017 -39.45117,1.43569 -60.22302,2.41228 -32.51052,1.52847 -96.72331,2.3505 -103.09364,1.31975 z"
       id="path5700"
       inkscape:connector-curvature="0"
       sodipodi:nodetypes="cssccssssscsssssssssscscsccccscsc" />
    <path
       style="opacity:0;fill:#cf6ae5;fill-opacity:0.40909095;stroke:none;stroke-width:11.04655743;stroke-miterlimit:4;stroke-dasharray:none;stroke-opacity:1"
       d="m 765.79288,972.32934 c -0.40207,-0.1452 -16.38877,-0.84345 -42.82166,-1.87035 -42.23197,-1.64067 -71.53939,-3.51266 -108.26467,-6.91534 -11.51215,-1.06662 -23.20473,-2.10698 -25.98352,-2.3119 -2.7788,-0.20493 -8.94988,-0.78489 -13.71353,-1.2888 -4.76365,-0.50392 -15.15706,-1.25078 -23.09646,-1.65969 -18.35882,-0.94555 -41.79465,-2.72757 -69.29306,-5.26896 -11.90711,-1.10045 -23.59804,-2.14841 -25.97987,-2.32881 -2.38182,-0.1804 -10.82647,-0.90584 -18.76588,-1.61211 -22.82704,-2.03062 -30.63781,-2.48085 -74.34174,-4.28525 -56.63136,-2.33813 -80.68318,-3.92661 -106.09939,-7.00723 -11.06062,-1.34061 -12.00602,-1.61069 -22.3901,-6.39605 -20.76121,-9.56754 -29.88601,-21.39581 -26.09164,-33.82199 4.24338,-13.89668 22.07921,-29.19944 65.26363,-55.99479 11.61635,-7.20781 17.2611,-11.01584 43.63688,-29.43818 7.64811,-5.34188 22.51515,-15.10609 33.03787,-21.69825 10.52271,-6.59217 20.49656,-12.87341 22.16411,-13.95833 1.66755,-1.08491 10.20744,-6.52626 18.97752,-12.0919 16.27216,-10.32655 25.17522,-16.82493 43.78947,-31.96212 19.88059,-16.16698 36.57103,-27.08053 86.47915,-56.54696 7.9627,-4.70129 27.28929,-16.24081 42.94801,-25.64339 35.63261,-21.39631 51.72751,-30.16114 78.26984,-42.62356 44.12189,-20.71653 80.44754,-31.9611 116.19774,-35.96888 55.22002,-6.19042 149.41218,12.0277 208.0518,40.24023 13.01472,6.26161 23.47592,13.98183 41.27712,30.46193 23.5834,21.83322 36.3324,37.71971 63.3202,78.90274 8.0575,12.29568 15.1865,23.24343 15.8421,24.32834 6.7995,11.25133 20.2847,30.30816 27.4516,38.79385 4.887,5.7862 10.0353,11.99979 11.4406,13.80798 1.4053,1.80819 4.2218,5.21087 6.2589,7.56151 2.0371,2.35064 7.3919,8.86012 11.8996,14.4655 4.5076,5.60538 9.1606,11.2272 10.3399,12.49293 4.2621,4.57434 45.8556,43.3134 57.5368,53.58811 12.3124,10.82998 17.9593,17.29822 17.9593,20.57188 0,6.34299 -10.4533,13.39215 -25.702,17.33206 -4.5215,1.16826 -13.4177,3.92025 -19.7692,6.11553 -27.3744,9.46143 -60.8443,15.29817 -166.3845,29.01545 -45.99228,5.97772 -72.98571,8.16542 -120.87779,9.79663 -6.35153,0.21633 -14.47138,0.52768 -18.04411,0.69187 -29.34058,1.34842 -45.9969,1.817 -77.71303,2.18627 -20.11487,0.23419 -36.67936,0.3872 -36.80999,0.34003 z m -4.06832,-163.05043 10.60453,-1.60646 10.41873,1.33165 c 5.7303,0.7324 11.51407,1.33164 12.85282,1.33164 4.26858,0 2.63074,-1.20712 -4.06178,-2.99362 -7.10616,-1.8969 -7.94596,-2.62583 -3.72786,-3.23564 3.61643,-0.52282 10.22373,-2.90195 10.22373,-3.68131 0,-0.95724 -5.66455,-0.72206 -16.96556,0.70441 l -10.41166,1.31421 -11.21225,-1.71625 c -10.10051,-1.54608 -13.21615,-1.70901 -31.42168,-1.64319 -11.11518,0.0402 -24.25172,0.4652 -29.19231,0.94447 -7.8985,0.7662 -10.16394,0.73517 -18.76588,-0.25705 -5.38064,-0.62064 -10.27017,-0.99521 -10.86562,-0.83237 -1.56877,0.42899 -1.32842,4.04086 0.36478,5.48195 0.96757,0.8235 0.96757,1.36701 0,1.63939 -0.79607,0.22411 -1.44742,1.42561 -1.44742,2.67 0,2.63005 1.79472,2.8108 13.71353,1.38118 4.94656,-0.59334 8.79099,-0.67694 12.21791,-0.26571 18.65482,2.23856 50.94055,1.96793 67.67599,-0.5673 z M 520.79064,799.21319 c 1.64845,-1.05449 3.40348,-2.8426 3.90007,-3.9736 1.78348,-4.06182 -9.36356,-6.94826 -20.4165,-5.28671 -7.13964,1.07329 -8.98873,3.06531 -5.74002,6.1837 5.35128,5.13664 16.60433,6.6922 22.25645,3.07661 z m 438.96897,-2.69752 c 1.51077,-0.3683 4.43087,-1.97851 6.4891,-3.57825 3.61119,-2.80679 3.65581,-2.96872 1.27445,-4.62418 -3.36029,-2.33599 -9.48229,-3.65775 -17.27147,-3.72896 -7.75825,-0.0709 -12.19463,1.42512 -12.19463,4.11231 0,5.83924 12.03586,10.17556 21.70255,7.81908 z m -84.49606,-15.69998 c 10.90287,-2.2993 18.74396,-7.86306 20.47748,-14.53012 2.86721,-11.02717 -23.35361,-18.54154 -44.14258,-12.65038 -16.04806,4.54767 -21.38726,17.55911 -9.92823,24.19469 6.79903,3.93713 22.47539,5.33045 33.59333,2.98581 z m -266.84519,-2.90211 c 6.34506,-1.50034 13.52172,-4.92095 16.08555,-7.66686 1.192,-1.27666 2.18185,-4.03214 2.19967,-6.12328 0.0268,-3.16134 -0.68469,-4.2668 -4.22256,-6.55967 -2.34022,-1.51667 -7.43185,-3.65225 -11.31474,-4.74572 -6.3461,-1.78714 -8.25004,-1.98812 -18.8336,-1.98812 -10.68302,0 -12.26684,0.17129 -17.09571,1.84896 -7.99833,2.77881 -12.97288,7.7108 -13.10837,12.99619 -0.0951,3.70907 0.50569,4.77834 4.21972,7.51046 6.36974,4.68571 14.29911,6.44367 27.42706,6.0806 5.55759,-0.1537 12.14693,-0.76235 14.64298,-1.35256 z"
       id="path6922"
       inkscape:connector-curvature="0" />
  </g>
  <g
     inkscape:groupmode="layer"
     id="layer1"
     inkscape:label="Vector"
     style="display:inline">
    <path
       style="fill:#000000;fill-opacity:1;stroke:#ffffff;stroke-width:0.68387902;stroke-opacity:1"
       d="m 679.69996,487.42989 c -5.81762,-0.0149 -11.65866,0.13468 -17.48778,0.44961 -44.25735,4.4464 -73.66673,50.32332 -10.17997,50.74495 35.72176,6.37328 94.94239,-5.44636 116.0863,-2.36298 1.56645,18.45773 1.11734,35.76089 -47.10247,37.41895 -38.27375,9.90474 -69.58594,24.96991 -100.7879,39.14527 -55.89676,29.42283 -101.62118,62.55995 -156.99913,92.2408 -34.36684,23.20839 -57.46982,49.69182 -97.61391,71.31202 -39.2718,19.51308 -62.57544,44.1541 -99.02403,64.62085 -24.56005,15.98073 -63.68256,35.14426 -58.96714,54.33168 -17.25938,14.28742 4.29658,36.24667 36.55636,45.01159 57.8096,6.826 117.64126,8.27028 176.82225,11.19628 47.7045,5.37656 95.28779,12.02137 145.14683,12.47185 64.88993,9.45132 132.7838,12.3187 200.38586,14.45848 40.41581,1.0106 82.4518,-1.0233 121.25668,-2.31228 63.47149,-1.47947 126.41509,-7.55736 185.78009,-17.73419 50.9982,-4.85602 98.9114,-14.49699 141.8096,-27.88026 41.3235,-7.29012 37.5567,-25.35838 19.1775,-40.99103 -15.9307,-10.09379 -22.5289,-20.92476 -36.4649,-32.1645 -17.9195,-16.10677 -36.7483,-32.15661 -46.7511,-49.64966 -34.9719,-34.08466 -57.3783,-71.00707 -78.6023,-107.50948 -20.4933,-23.51969 -34.7207,-48.17175 -64.6719,-69.695 -12.38939,-17.46026 -43.02358,-28.99493 -74.7677,-39.15203 -21.89518,-15.36673 -92.03382,-10.95496 -85.49196,-32.56791 -15.77411,-26.3241 32.35707,-14.32272 64.63972,-10.21705 36.24306,4.38 69.20282,-9.74391 94.90254,-18.40015 32.1526,-11.90555 11.6957,-36.24652 -26.51243,-38.6675 -44.09115,-3.31145 -93.55504,-1.64762 -130.15767,10.69371 -29.69375,14.56826 -52.95832,11.8435 -84.72754,-0.20959 -24.13287,-9.61806 -54.83882,-14.50174 -86.2539,-14.58243 z m 19.70436,3.64307 c 20.76054,0.10062 53.51675,17.98877 27.56138,23.10021 -4.85743,1.26907 -10.50892,0.92228 -14.17032,-0.87443 -3.45016,-7.76459 -18.50026,-6.05606 -24.97866,-19.07739 2.64421,-2.24692 6.79671,-3.1716 11.5876,-3.14839 z m -30.45085,0.33129 c 2.40836,-0.0186 4.88834,0.0928 7.42903,0.34933 15.00239,13.33463 12.42627,21.95066 -20.75329,21.43473 24.31925,3.61582 12.77027,7.29314 -3.67863,18.51059 -2.50139,4.18011 -10.83357,0.17105 -16.48092,0.47101 -22.96461,-10.8536 -2.64159,-40.48577 33.48381,-40.76566 z m 260.61219,2.76752 c 2.26274,0.0239 4.50566,0.30511 6.68934,0.89809 10.00637,11.23456 -19.05588,20.58558 -44.57664,19.99802 -0.27401,-4.23929 19.46207,-21.09062 37.8873,-20.89611 z m 40.43786,2.66836 c 19.43098,0.0441 42.47688,6.34245 45.51178,16.65017 -8.8749,15.85496 -52.19951,26.515 -83.09974,30.26916 -20.68929,0.68965 -41.31279,-4.64759 -62.52456,-5.70857 -19.4917,-7.33833 -62.68667,-10.53511 -13.53454,-14.66919 35.39031,-14.38031 36.08238,21.61832 60.59247,12.713 -51.63835,-13.80225 19.67643,-27.90014 31.38102,-9.50489 27.93587,10.45691 28.17719,-2.77278 2.86721,-7.24107 29.08992,-9.02657 2.40343,-4.21306 -8.85397,-10.20353 -0.37859,-8.58989 12.54735,-12.33937 27.66033,-12.30508 z m -85.33363,1.61025 c 13.59899,-0.1601 -17.13642,24.42566 -41.63027,20.81272 -57.50333,4.77462 31.85293,-16.54059 40.17563,-20.71919 0.53264,-0.0584 1.01596,-0.0884 1.45464,-0.0935 z m -136.043,4.6437 c 9.74355,0.28993 31.10277,6.10764 35.0003,11.44869 -8.87438,2.88083 -21.10473,-0.55806 -29.37224,-2.35735 -13.5244,-6.90014 -12.2947,-9.28971 -5.62806,-9.09134 z m -38.33259,14.1779 c 6.30913,0.002 12.61795,0.45188 18.42537,1.36235 -3.61266,1.42638 -15.18424,22.63237 -45.78142,15.77461 -6.09803,0.82022 -11.72618,-0.11607 -17.60158,-0.65919 -0.12931,-10.78764 22.42503,-16.4858 44.95763,-16.47777 z m 57.60898,0.89245 c 4.33158,-0.003 8.8555,0.2552 13.4999,0.81809 28.26321,-2.12753 -38.28045,15.10738 -55.61753,14.91033 0.93952,-8.10826 18.7271,-15.71373 42.11763,-15.72842 z m 33.23148,5.82689 c 5.0468,-0.0645 10.62603,1.11528 16.54029,3.99239 32.51277,8.24828 13.36787,25.40506 15.23161,39.31655 -16.40072,-5.22982 -61.33103,3.56596 -51.40947,-9.26149 -14.10965,-10.12443 -2.23191,-33.76783 19.63757,-34.04745 z m -11.05819,45.12878 c 43.42623,3.29639 85.50342,9.97894 122.85974,20.56369 30.23267,11.81717 67.14331,21.69673 81.92464,39.30753 24.37625,18.06545 39.39985,37.77909 55.83025,57.38992 20.047,28.74258 36.8492,57.97607 55.9169,86.86579 20.8715,20.67207 33.6071,42.82051 53.8685,63.72951 20.6319,17.46149 35.6755,36.26504 58.0468,53.25442 24.7042,16.01735 14.9481,30.24825 -22.856,36.55016 -29.8999,14.36458 -76.6324,19.29532 -117.1451,24.87836 -45.0282,7.05902 -90.82834,12.84943 -138.18047,16.64116 -63.77137,0.21309 -127.2398,8.19101 -191.20285,3.40644 -62.66365,-0.93063 -124.13871,-5.77195 -184.79058,-12.82006 -57.75706,-0.35983 -112.36928,-10.24204 -169.17058,-12.65102 -49.60559,-1.0639 -99.95411,-3.19385 -147.30899,-8.7916 -29.42368,-9.43768 -47.86372,-25.46007 -39.35183,-42.81876 -0.19364,0.14636 -0.37646,0.29476 -0.56157,0.44285 13.63173,-25.39118 51.91617,-45.29554 85.45979,-65.68346 36.64289,-31.93614 93.19866,-57.61544 132.21593,-88.79718 28.48617,-28.36438 73.90746,-51.77578 115.44557,-76.08194 38.69297,-24.31493 77.20978,-49.40312 127.7778,-68.74507 32.86465,-14.37994 74.23592,-26.46557 121.22205,-26.64074 z"
       id="path6910"
       inkscape:connector-curvature="0" />
  </g>
  <g
     inkscape:groupmode="layer"
     id="layer3"
     inkscape:label="Face"
     style="display:inline">
    <path
       style="display:inline;fill:#000000;stroke:#ffffff;stroke-width:0.68387902;stroke-opacity:1"
       d="m 738.60073,811.13488 c -21.15851,0.24064 -78.69488,-0.67048 -69.60097,-12.07437 32.9593,3.02092 73.05965,9.51646 108.17558,3.04936 52.98353,-7.86617 -12.21755,9.37801 -38.57461,9.02501 z"
       id="path6890"
       inkscape:connector-curvature="0" />
    <path
       style="display:inline;fill:#000000;stroke:#ffffff;stroke-width:0.68387902;stroke-opacity:1"
       d="m 509.18908,800.96423 c -42.33969,-15.07714 42.79344,-15.14426 6.72616,0.25842 z"
       id="path6888"
       inkscape:connector-curvature="0" />
    <path
       style="display:inline;fill:#000000;stroke:#ffffff;stroke-width:0.68387902;stroke-opacity:1"
       d="m 946.81876,796.29768 c -35.85064,-18.64987 49.56116,-12.44756 11.24106,0.39481 -3.76682,0.0357 -8.25432,1.87426 -11.24106,-0.39481 z"
       id="path6886"
       inkscape:connector-curvature="0" />
    <path
       style="display:inline;fill:#000000;stroke:#ffffff;stroke-width:0.35118809;stroke-opacity:1"
       d="m 863.30556,767.89785 c -41.28084,0.10625 -33.31534,-8.07826 3.72355,-7.96723 43.58001,0.20188 32.5091,8.03396 -3.72355,7.96723 z"
       id="path6884"
       inkscape:connector-curvature="0" />
    <path
       style="display:inline;fill:#000000;stroke:#ffffff;stroke-width:0.32971337;stroke-opacity:1"
       d="m 589.75373,765.41151 c -43.87457,-0.28644 -31.49863,-7.65005 8.98883,-6.65045 44.81397,1.02729 32.1794,6.77187 -8.98883,6.65045 z"
       id="path4532"
       inkscape:connector-curvature="0" />
    <path
       style="display:inline;opacity:0;fill:#b60000;fill-opacity:1;stroke:#3f5de4;stroke-width:11.04655743;stroke-miterlimit:4;stroke-dasharray:none;stroke-opacity:0.59595959"
       d="m 696.9877,810.07022 -7.93941,-0.77546 8.66118,-0.83851 c 18.65063,-1.80563 33.70208,-2.71828 44.86953,-2.72067 12.71103,-0.003 28.87171,1.20292 27.02051,2.01583 -0.63641,0.27947 -5.19655,1.12321 -10.13363,1.87499 -7.68796,1.17065 -12.24671,1.35627 -31.75765,1.29308 -12.52961,-0.0406 -26.35386,-0.42275 -30.72053,-0.84926 z"
       id="path6951"
       inkscape:connector-curvature="0" />
  </g>
</svg>
